# xmcd
#
# Track frame offsets: 
#        150
#        12037
#        23179
#        35538
#        57929
#        71893
#        85102
#        97318
#        110112
#        123533
#        134339
#        145779
#        157076
#        169267
#        185733
#        203186
#        223136
#        234385
#        248803
#        269850
#
# Disc length: 3792 seconds
#
# Revision: 2
# Processed by: cddbd v1.5.2PL0 Copyright (c) Steve Scherf et al.
# Submitted via: ExactAudioCopy v1.0b3
#
DISCID=3a0ece14
DTITLE=Various Artist - Very Best Of Blues Brother Soul Sister [CD3)
DYEAR=2005
DGENRE=Blues
TTITLE0=Sam and Dave - Soul Man
TTITLE1=John Lee Hooker - Boom Boom
TTITLE2=Aretha Franklin - A Natural Woman
TTITLE3=B B King - The Thrill is Gone
TTITLE4=Wilson Picket - Mustang Sally
TTITLE5=King Curtis - Memphis Soul Stew
TTITLE6=Mary Wells - My Guy
TTITLE7=Bob and Earl - Harlem Shuffle
TTITLE8=Don Covay - Seesaw
TTITLE9=The Drifters - Ruby Baby
TTITLE10=Clarence Carter - Slip Away
TTITLE11=Barbara Lewis - Baby I'm Yours
TTITLE12=Aaron Neville - Tell It Like It Is
TTITLE13=Dorothy Moore - Misty Blue
TTITLE14=Fleetwood Mac - Need Your Love So Bad
TTITLE15=The Staple Sisters - I'll Take You There
TTITLE16=Doris Troy - Just One Look
TTITLE17=Aretha Franklin - Do Right Woman, Do Right Man
TTITLE18=Taj Mahal - Honky Tonk Woman
TTITLE19=Billie Holiday - Lover Man
EXTD=
EXTT0=
EXTT1=
EXTT2=
EXTT3=
EXTT4=
EXTT5=
EXTT6=
EXTT7=
EXTT8=
EXTT9=
EXTT10=
EXTT11=
EXTT12=
EXTT13=
EXTT14=
EXTT15=
EXTT16=
EXTT17=
EXTT18=
EXTT19=
PLAYORDER=
